Coordinates
version=1
nRows=17
nColumns=24
inDegrees=yes

Units are S.I. units (second, meters, Newtons, ...)
Angles are in degrees.

endheader
time	pelvis_tilt	pelvis_list	pelvis_rotation	pelvis_tx	pelvis_ty	pelvis_tz	hip_flexion_r	hip_adduction_r	hip_rotation_r	knee_angle_r	ankle_angle_r	subtalar_angle_r	mtp_angle_r	hip_flexion_l	hip_adduction_l	hip_rotation_l	knee_angle_l	ankle_angle_l	subtalar_angle_l	mtp_angle_l	lumbar_extension	lumbar_bending	lumbar_rotation
      4.72500000	     13.54122632	      1.27451567	      0.62632898	      0.48179536	      0.94606418	     -0.30652021	     -1.97927737	     -5.66348310	    -10.08986919	    -63.74174381	     12.37518770	     -3.52988018	      0.00000000	    -11.49534106	      4.69557539	      7.32152705	     -9.83570731	     16.32458139	     -3.88844428	      0.00000000	    -28.81335012	     -1.40260959	     -1.81757691
      4.73000000	     13.61864706	      1.01175010	      0.98084298	      0.48774094	      0.94661430	     -0.30710350	     -1.37751303	     -5.30516735	    -10.57298760	    -63.33129743	     13.10093854	     -3.75828244	      0.00000000	    -12.13667955	      4.32093634	      7.51769171	     -9.48577883	     16.49981986	     -3.71092661	      0.00000000	    -28.91046005	     -0.93614578	     -2.22200391
      4.73500000	     13.65089944	      0.73614220	      1.26474268	      0.49361622	      0.94705020	     -0.30761908	     -0.71004716	     -4.93490753	    -10.96251071	    -62.86926324	     13.81327680	     -3.87847537	      0.00000000	    -12.71489042	      3.94652516	      7.63682290	     -9.14936256	     16.66029880	     -3.55975649	      0.00000000	    -28.97041222	     -0.48451168	     -2.51539881
      4.74000000	     13.76610745	      0.52577867	      1.70695603	      0.49959430	      0.94752495	     -0.30824500	     -0.20560002	     -4.63373060	    -11.54002309	    -62.29191760	     14.45524471	     -4.04664875	      0.00000000	    -13.39098447	      3.58795309	      7.87214091	     -8.79565870	     16.83788930	     -3.32944313	      0.00000000	    -29.09376623	     -0.04067382	     -3.04128250
      4.74500000	     13.84426781	      0.29489658	      2.06347233	      0.50553088	      0.94789230	     -0.30879090	      0.35399146	     -4.31254097	    -12.00528344	    -61.66376234	     15.08462692	     -4.09288716	      0.00000000	    -14.02007301	      3.22573199	      8.02353900	     -8.44483535	     17.00647980	     -3.14786799	      0.00000000	    -29.18410745	      0.39064449	     -3.43302826
      4.75000000	     13.87702834	      0.06630904	      2.36075785	      0.51142601	      0.94812045	     -0.30926975	      0.97160394	     -3.99435330	    -12.38843535	    -60.99097783	     15.70336138	     -4.05752734	      0.00000000	    -14.58799302	      2.87998791	      8.12921835	     -8.11281759	     17.20556259	     -2.98281356	      0.00000000	    -29.22793955	      0.79122780	     -3.73464164
      4.75500000	     13.97594773	     -0.11683277	      2.77980626	      0.51734928	      0.94840254	     -0.30979612	      1.46033362	     -3.71634297	    -12.89418925	    -60.20956207	     16.25861650	     -4.05739520	      0.00000000	    -15.22412123	      2.53206381	      8.31017146	     -7.77527936	     17.33840326	     -2.74588896	      0.00000000	    -29.34122198	      1.18982868	     -4.22444232
      4.76000000	     14.05371235	     -0.30068338	      3.13238521	      0.52328167	      0.94857203	     -0.31026971	      1.97286805	     -3.44165758	    -13.31623368	    -59.37886848	     16.79772368	     -3.96240184	      0.00000000	    -15.84036772	      2.20028158	      8.44430046	     -7.43202368	     17.50217786	     -2.56529837	      0.00000000	    -29.42535700	      1.56337061	     -4.61590590
      4.76500000	     14.11365197	     -0.47168694	      3.47286096	      0.52919130	      0.94865382	     -0.31070520	      2.49365917	     -3.17848665	    -13.70668465	    -58.48849446	     17.31581345	     -3.82997136	      0.00000000	    -16.42683327	      1.88061432	      8.55897499	     -7.10460084	     17.67117183	     -2.37616911	      0.00000000	    -29.49300567	      1.91294703	     -4.98657783
      4.77000000	     14.18853978	     -0.62336898	      3.83074914	      0.53513368	      0.94869679	     -0.31113832	      2.96941570	     -2.93672241	    -14.10668704	    -57.52379902	     17.79509487	     -3.66558664	      0.00000000	    -17.03086674	      1.56905210	      8.67685631	     -6.77210477	     17.83523835	     -2.19611391	      0.00000000	    -29.57043393	      2.24855329	     -5.38721568
      4.77500000	     14.22291701	     -0.76899493	      4.13636461	      0.54104922	      0.94861842	     -0.31149569	      3.48619275	     -2.69830060	    -14.42692361	    -56.50848717	     18.27499675	     -3.43812027	      0.00000000	    -17.57977423	      1.27978192	      8.74787568	     -6.46403355	     18.01860421	     -2.04672874	      0.00000000	    -29.60729609	      2.54638861	     -5.69855275
      4.78000000	     14.26073725	     -0.89766257	      4.44949205	      0.54697886	      0.94846979	     -0.31186788	      3.97813763	     -2.48200095	    -14.74646997	    -55.43791299	     18.72712116	     -3.19920580	      0.00000000	    -18.13406137	      1.00216776	      8.83596263	     -6.15153110	     18.20562264	     -1.88405024	      0.00000000	    -29.65150485	      2.83727281	     -6.03554220
      4.78500000	     14.36723693	     -1.00101049	      4.82748694	      0.55291320	      0.94837590	     -0.31223618	      4.35131132	     -2.27857438	    -15.10343752	    -54.27035813	     19.11789972	     -2.96352221	      0.00000000	    -18.76055440	      0.71415824	      8.96767759	     -5.83038754	     18.33588482	     -1.71482274	      0.00000000	    -29.76800995	      3.12722536	     -6.48502606
      4.79000000	     14.37145273	     -1.10507548	      5.07928936	      0.55881838	      0.94805871	     -0.31249421	      4.85189406	     -2.07988918	    -15.30999525	    -53.08555822	     19.54622782	     -2.64593491	      0.00000000	    -19.26762378	      0.47840753	      9.01262669	     -5.54377247	     18.53114943	     -1.60343355	      0.00000000	    -29.78278486	      3.35604292	     -6.73044167
      4.79500000	     14.39647242	     -1.19241062	      5.37469002	      0.56476332	      0.94773128	     -0.31275620	      5.28889506	     -1.89279807	    -15.53538286	    -51.81807156	     19.93135144	     -2.32882383	      0.00000000	    -19.79432335	      0.23716905	      9.07816212	     -5.26138770	     18.70526203	     -1.46770435	      0.00000000	    -29.81185757	      3.58329885	     -7.05550159
      4.80000000	     14.49799293	     -1.26117815	      5.73440865	      0.57067902	      0.94745245	     -0.31301923	      5.60316090	     -1.71367879	    -15.80318121	    -50.46467199	     20.26396885	     -2.02996363	      0.00000000	    -20.39818317	     -0.02311344	      9.18773980	     -4.97230461	     18.84610371	     -1.32733034	      0.00000000	    -29.93647176	      3.81803123	     -7.48144296
      4.80500000	     14.48401362	     -1.32521403	      5.95379901	      0.57660307	      0.94693816	     -0.31317000	      6.05476320	     -1.54728914	    -15.90778130	    -49.10075907	     20.63539100	     -1.65683352	      0.00000000	    -20.87589476	     -0.21284922	      9.21267237	     -4.71483792	     19.03885577	     -1.26488201	      0.00000000	    -29.94179792	      3.97640669	     -7.69290287
